<?xml version="1.0" standalone="no"?>
<!DOCTYPE svg PUBLIC "-//W3C//DTD SVG 20010904//EN"
 "http://www.w3.org/TR/2001/REC-SVG-20010904/DTD/svg10.dtd">
<svg version="1.0" xmlns="http://www.w3.org/2000/svg"
 width="189.000000pt" height="189.000000pt" viewBox="0 0 189.000000 189.000000"
 preserveAspectRatio="xMidYMid meet">
<metadata>
Created by potrace 1.11, written by Peter Selinger 2001-2013
</metadata>
<g transform="translate(0.000000,189.000000) scale(0.100000,-0.100000)"
fill="#000000" stroke="none">
<path d="M798 1860 c-147 -37 -254 -112 -367 -258 -100 -130 -146 -361 -106
-531 9 -36 20 -70 24 -75 5 -6 16 -33 24 -61 15 -52 151 -321 196 -389 14 -21
31 -46 36 -55 75 -117 225 -339 261 -386 25 -33 52 -69 60 -79 13 -19 15 -18
49 20 37 41 297 427 357 529 69 118 149 275 174 342 14 37 33 84 42 103 14 29
17 64 16 195 0 154 -1 163 -30 236 -42 103 -90 172 -184 263 -153 147 -343
197 -552 146z m257 -120 c43 -11 99 -32 124 -47 71 -41 162 -139 203 -218 102
-199 89 -375 -50 -654 -85 -168 -217 -384 -341 -554 l-49 -68 -54 76 c-29 42
-65 94 -81 115 -61 85 -222 362 -273 470 -57 119 -104 273 -104 342 0 54 27
179 51 235 66 154 208 274 363 308 86 19 122 18 211 -5z"/>
<path d="M835 1495 c-57 -20 -150 -119 -165 -176 -31 -112 -8 -211 65 -285 97
-97 211 -118 330 -60 81 39 106 63 135 129 44 99 34 200 -29 298 -43 68 -128
109 -225 109 -39 -1 -89 -7 -111 -15z m183 -126 c36 -18 49 -32 69 -75 28 -61
25 -103 -11 -157 -29 -44 -100 -80 -148 -74 -134 17 -195 178 -105 276 49 53
123 64 195 30z"/>
</g>
</svg>
